# xmcd
#
# Track frame offsets: 
#        150
#        22064
#        42860
#        61457
#        80523
#        104987
#        129436
#        151758
#        173364
#        192005
#        209259
#        228018
#        247565
#        267784
#        282538
#        307757
#
# Disc length: 4391 seconds
#
# Revision: 0
# Processed by: cddbd v1.5.2PL0 Copyright (c) Steve Scherf et al.
# Submitted via: ExactAudioCopy v0.95a5
#
DISCID=c8112510
DTITLE=李翊君 - 何日君再來
DYEAR=1900
DGENRE=Country
TTITLE0=想和你去吹吹風
TTITLE1=我會想你
TTITLE2=自首
TTITLE3=來不及說愛你
TTITLE4=背叛自己
TTITLE5=罪過
TTITLE6=愛你的心留在冬季
TTITLE7=酗酒酗愛
TTITLE8=愛的生還者
TTITLE9=愛還給他
TTITLE10=到底愛我不愛
TTITLE11=昨日愛人
TTITLE12=愛上孤獨的男人
TTITLE13=我的男主角
TTITLE14=上了天
TTITLE15=你那麼愛她
EXTD=
EXTT0=
EXTT1=
EXTT2=
EXTT3=
EXTT4=
EXTT5=
EXTT6=
EXTT7=
EXTT8=
EXTT9=
EXTT10=
EXTT11=
EXTT12=
EXTT13=
EXTT14=
EXTT15=
PLAYORDER=
